<svg width="31" height="24" viewBox="0 0 31 24" fill="none" xmlns="http://www.w3.org/2000/svg">
<path d="M5 10.0824C6.65469 10.0824 8 8.62498 8 6.8324C8 5.03982 6.65469 3.5824 5 3.5824C3.34531 3.5824 2 5.03982 2 6.8324C2 8.62498 3.34531 10.0824 5 10.0824ZM26 10.0824C27.6547 10.0824 29 8.62498 29 6.8324C29 5.03982 27.6547 3.5824 26 3.5824C24.3453 3.5824 23 5.03982 23 6.8324C23 8.62498 24.3453 10.0824 26 10.0824ZM27.5 11.7074H24.5C23.675 11.7074 22.9297 12.0679 22.3859 12.6519C24.275 13.7742 25.6156 15.8004 25.9062 18.2074H29C29.8297 18.2074 30.5 17.4812 30.5 16.5824V14.9574C30.5 13.1648 29.1547 11.7074 27.5 11.7074ZM15.5 11.7074C18.4016 11.7074 20.75 9.16326 20.75 6.0199C20.75 2.87654 18.4016 0.332397 15.5 0.332397C12.5984 0.332397 10.25 2.87654 10.25 6.0199C10.25 9.16326 12.5984 11.7074 15.5 11.7074ZM19.1 13.3324H18.7109C17.7359 13.8402 16.6531 14.1449 15.5 14.1449C14.3469 14.1449 13.2688 13.8402 12.2891 13.3324H11.9C8.91875 13.3324 6.5 15.9527 6.5 19.1824V20.6449C6.5 21.9906 7.50781 23.0824 8.75 23.0824H22.25C23.4922 23.0824 24.5 21.9906 24.5 20.6449V19.1824C24.5 15.9527 22.0812 13.3324 19.1 13.3324ZM8.61406 12.6519C8.07031 12.0679 7.325 11.7074 6.5 11.7074H3.5C1.84531 11.7074 0.5 13.1648 0.5 14.9574V16.5824C0.5 17.4812 1.17031 18.2074 2 18.2074H5.08906C5.38438 15.8004 6.725 13.7742 8.61406 12.6519Z" fill="#121F3E"/>
</svg>
