<svg width="27" height="27" viewBox="0 0 27 27" fill="none" xmlns="http://www.w3.org/2000/svg">
<path d="M0 2.41541C0 1.31084 0.89543 0.415405 2 0.415405H9.81818C10.9228 0.415405 11.8182 1.31084 11.8182 2.41541V10.2336C11.8182 11.3382 10.9228 12.2336 9.81818 12.2336H2C0.895431 12.2336 0 11.3382 0 10.2336V2.41541Z" fill="#121F3E"/>
<path d="M0 16.5972C0 15.4927 0.89543 14.5972 2 14.5972H9.81818C10.9228 14.5972 11.8182 15.4927 11.8182 16.5972V24.4154C11.8182 25.52 10.9228 26.4154 9.81818 26.4154H2C0.895431 26.4154 0 25.52 0 24.4154V16.5972Z" fill="#121F3E"/>
<path d="M14.7734 2.41541C14.7734 1.31084 15.6689 0.415405 16.7734 0.415405H24.5916C25.6962 0.415405 26.5916 1.31084 26.5916 2.41541V10.2336C26.5916 11.3382 25.6962 12.2336 24.5916 12.2336H16.7734C15.6689 12.2336 14.7734 11.3382 14.7734 10.2336V2.41541Z" fill="#121F3E"/>
<path d="M14.7734 16.597C14.7734 15.4925 15.6689 14.597 16.7734 14.597H24.5916C25.6962 14.597 26.5916 15.4925 26.5916 16.597V24.4152C26.5916 25.5198 25.6962 26.4152 24.5916 26.4152H16.7734C15.6689 26.4152 14.7734 25.5198 14.7734 24.4152V16.597Z" fill="#A51535"/>
</svg>
